<svg width="25" height="24" viewBox="0 0 25 24" fill="none" xmlns="http://www.w3.org/2000/svg">
<path d="M18.2351 5.05701C18.1141 5.03901 18 5.13899 18 5.26099V5.49902C18 7.31902 16.82 8.49902 15 8.49902H10C8.18 8.49902 7 7.31902 7 5.49902V5.26099C7 5.13899 6.88489 5.03901 6.76489 5.05701C5.25189 5.27701 4.5 6.258 4.5 8V18C4.5 20 5.5 21 7.5 21H17.5C19.5 21 20.5 20 20.5 18V8C20.5 6.258 19.7481 5.27701 18.2351 5.05701ZM10.53 15.864L9.19702 17.197C9.05602 17.338 8.86599 17.417 8.66699 17.417C8.46799 17.417 8.27696 17.338 8.13696 17.198L7.46997 16.531C7.17697 16.238 7.17697 15.763 7.46997 15.47C7.76297 15.177 8.23801 15.177 8.53101 15.47L8.66797 15.607L9.47095 14.804C9.76395 14.511 10.239 14.511 10.532 14.804C10.823 15.096 10.823 15.571 10.53 15.864ZM10.53 11.864L9.19702 13.197C9.05602 13.338 8.86599 13.417 8.66699 13.417C8.46799 13.417 8.27696 13.338 8.13696 13.198L7.46997 12.531C7.17697 12.238 7.17697 11.763 7.46997 11.47C7.76297 11.177 8.23801 11.177 8.53101 11.47L8.66797 11.607L9.47095 10.804C9.76395 10.511 10.239 10.511 10.532 10.804C10.823 11.096 10.823 11.571 10.53 11.864ZM17 16.75H13C12.586 16.75 12.25 16.414 12.25 16C12.25 15.586 12.586 15.25 13 15.25H17C17.414 15.25 17.75 15.586 17.75 16C17.75 16.414 17.414 16.75 17 16.75ZM17 12.75H13C12.586 12.75 12.25 12.414 12.25 12C12.25 11.586 12.586 11.25 13 11.25H17C17.414 11.25 17.75 11.586 17.75 12C17.75 12.414 17.414 12.75 17 12.75ZM8.5 5.5V4.5C8.5 3.5 9 3 10 3H15C16 3 16.5 3.5 16.5 4.5V5.5C16.5 6.5 16 7 15 7H10C9 7 8.5 6.5 8.5 5.5Z" fill="#613BE7"/>
</svg>
