<svg width="25" height="24" viewBox="0 0 25 24" fill="none" xmlns="http://www.w3.org/2000/svg">
<path d="M17.5 4.25H17.23C17.133 2.996 16.321 2.25 15 2.25H10C8.679 2.25 7.86702 2.996 7.77002 4.25H7.5C5.082 4.25 3.75 5.582 3.75 8V18C3.75 20.418 5.082 21.75 7.5 21.75H17.5C19.918 21.75 21.25 20.418 21.25 18V8C21.25 5.582 19.918 4.25 17.5 4.25ZM9.25 4.5C9.25 3.911 9.411 3.75 10 3.75H15C15.589 3.75 15.75 3.911 15.75 4.5V5.5C15.75 6.089 15.589 6.25 15 6.25H10C9.411 6.25 9.25 6.089 9.25 5.5V4.5ZM19.75 18C19.75 19.577 19.077 20.25 17.5 20.25H7.5C5.923 20.25 5.25 19.577 5.25 18V8C5.25 6.423 5.923 5.75 7.5 5.75H7.77002C7.86702 7.004 8.679 7.75 10 7.75H15C16.321 7.75 17.133 7.004 17.23 5.75H17.5C19.077 5.75 19.75 6.423 19.75 8V18ZM17.75 12C17.75 12.414 17.414 12.75 17 12.75H13C12.586 12.75 12.25 12.414 12.25 12C12.25 11.586 12.586 11.25 13 11.25H17C17.414 11.25 17.75 11.586 17.75 12ZM17.75 16C17.75 16.414 17.414 16.75 17 16.75H13C12.586 16.75 12.25 16.414 12.25 16C12.25 15.586 12.586 15.25 13 15.25H17C17.414 15.25 17.75 15.586 17.75 16ZM10.53 10.803C10.823 11.096 10.823 11.571 10.53 11.864L9.19702 13.197C9.05602 13.338 8.86599 13.417 8.66699 13.417C8.46799 13.417 8.27696 13.338 8.13696 13.198L7.46997 12.531C7.17697 12.238 7.17697 11.763 7.46997 11.47C7.76297 11.177 8.23801 11.177 8.53101 11.47L8.66797 11.607L9.47095 10.804C9.76295 10.51 10.237 10.51 10.53 10.803ZM10.53 14.803C10.823 15.096 10.823 15.571 10.53 15.864L9.19702 17.197C9.05602 17.338 8.86599 17.417 8.66699 17.417C8.46799 17.417 8.27696 17.338 8.13696 17.198L7.46997 16.531C7.17697 16.238 7.17697 15.763 7.46997 15.47C7.76297 15.177 8.23801 15.177 8.53101 15.47L8.66797 15.607L9.47095 14.804C9.76295 14.51 10.237 14.51 10.53 14.803Z" fill="#93989D"/>
</svg>
