<svg width="25" height="24" viewBox="0 0 25 24" fill="none" xmlns="http://www.w3.org/2000/svg">
<path d="M18.1667 3.75H16.9167V3C16.9167 2.586 16.5807 2.25 16.1667 2.25C15.7527 2.25 15.4167 2.586 15.4167 3V3.75H8.91668V3C8.91668 2.586 8.58068 2.25 8.16668 2.25C7.75268 2.25 7.41668 2.586 7.41668 3V3.75H6.16668C3.74868 3.75 2.41668 5.082 2.41668 7.5V18C2.41668 20.418 3.74868 21.75 6.16668 21.75H18.1667C20.5847 21.75 21.9167 20.418 21.9167 18V7.5C21.9167 5.082 20.5847 3.75 18.1667 3.75ZM6.16668 5.25H7.41668V6C7.41668 6.414 7.75268 6.75 8.16668 6.75C8.58068 6.75 8.91668 6.414 8.91668 6V5.25H15.4167V6C15.4167 6.414 15.7527 6.75 16.1667 6.75C16.5807 6.75 16.9167 6.414 16.9167 6V5.25H18.1667C19.7437 5.25 20.4167 5.923 20.4167 7.5V8.25H3.91668V7.5C3.91668 5.923 4.58968 5.25 6.16668 5.25ZM18.1667 20.25H6.16668C4.58968 20.25 3.91668 19.577 3.91668 18V9.75H20.4167V18C20.4167 19.577 19.7437 20.25 18.1667 20.25ZM9.1867 13C9.1867 13.552 8.7397 14 8.1867 14C7.6347 14 7.18157 13.552 7.18157 13C7.18157 12.448 7.62469 12 8.17669 12H8.1867C8.7387 12 9.1867 12.448 9.1867 13ZM13.1867 13C13.1867 13.552 12.7397 14 12.1867 14C11.6347 14 11.1816 13.552 11.1816 13C11.1816 12.448 11.6247 12 12.1767 12H12.1867C12.7387 12 13.1867 12.448 13.1867 13ZM17.1867 13C17.1867 13.552 16.7397 14 16.1867 14C15.6347 14 15.1816 13.552 15.1816 13C15.1816 12.448 15.6247 12 16.1767 12H16.1867C16.7387 12 17.1867 12.448 17.1867 13ZM9.1867 17C9.1867 17.552 8.7397 18 8.1867 18C7.6347 18 7.18157 17.552 7.18157 17C7.18157 16.448 7.62469 16 8.17669 16H8.1867C8.7387 16 9.1867 16.448 9.1867 17ZM13.1867 17C13.1867 17.552 12.7397 18 12.1867 18C11.6347 18 11.1816 17.552 11.1816 17C11.1816 16.448 11.6247 16 12.1767 16H12.1867C12.7387 16 13.1867 16.448 13.1867 17ZM17.1867 17C17.1867 17.552 16.7397 18 16.1867 18C15.6347 18 15.1816 17.552 15.1816 17C15.1816 16.448 15.6247 16 16.1767 16H16.1867C16.7387 16 17.1867 16.448 17.1867 17Z" fill="#93989D"/>
</svg>
