<svg width="25" height="24" viewBox="0 0 25 24" fill="none" xmlns="http://www.w3.org/2000/svg">
<path d="M20.8667 9.75H3.4668C3.3008 9.75 3.16675 9.88405 3.16675 10.05V18C3.16675 20 4.16675 21 6.16675 21H18.1667C20.1667 21 21.1667 20 21.1667 18V10.05C21.1667 9.88405 21.0327 9.75 20.8667 9.75ZM8.18677 18C7.63477 18 7.18164 17.552 7.18164 17C7.18164 16.448 7.62476 16 8.17676 16H8.18677C8.73977 16 9.18677 16.448 9.18677 17C9.18677 17.552 8.73877 18 8.18677 18ZM8.18677 14C7.63477 14 7.18164 13.552 7.18164 13C7.18164 12.448 7.62476 12 8.17676 12H8.18677C8.73977 12 9.18677 12.448 9.18677 13C9.18677 13.552 8.73877 14 8.18677 14ZM12.1868 18C11.6348 18 11.1816 17.552 11.1816 17C11.1816 16.448 11.6248 16 12.1768 16H12.1868C12.7398 16 13.1868 16.448 13.1868 17C13.1868 17.552 12.7388 18 12.1868 18ZM12.1868 14C11.6348 14 11.1816 13.552 11.1816 13C11.1816 12.448 11.6248 12 12.1768 12H12.1868C12.7398 12 13.1868 12.448 13.1868 13C13.1868 13.552 12.7388 14 12.1868 14ZM16.1868 18C15.6348 18 15.1816 17.552 15.1816 17C15.1816 16.448 15.6248 16 16.1768 16H16.1868C16.7398 16 17.1868 16.448 17.1868 17C17.1868 17.552 16.7388 18 16.1868 18ZM16.1868 14C15.6348 14 15.1816 13.552 15.1816 13C15.1816 12.448 15.6248 12 16.1768 12H16.1868C16.7398 12 17.1868 12.448 17.1868 13C17.1868 13.552 16.7388 14 16.1868 14ZM21.1667 7.5V7.94995C21.1667 8.11595 21.0327 8.25 20.8667 8.25H3.4668C3.3008 8.25 3.16675 8.11595 3.16675 7.94995V7.5C3.16675 5.5 4.16675 4.5 6.16675 4.5H7.41675V3C7.41675 2.59 7.75675 2.25 8.16675 2.25C8.57675 2.25 8.91675 2.59 8.91675 3V4.5H15.4167V3C15.4167 2.59 15.7567 2.25 16.1667 2.25C16.5767 2.25 16.9167 2.59 16.9167 3V4.5H18.1667C20.1667 4.5 21.1667 5.5 21.1667 7.5Z" fill="#613BE7"/>
</svg>
