<svg width="25" height="24" viewBox="0 0 25 24" fill="none" xmlns="http://www.w3.org/2000/svg">
<path fill-rule="evenodd" clip-rule="evenodd" d="M18.8333 21H15.6334C15.4674 21 15.3333 20.866 15.3333 20.7V16.5C15.3333 15.119 14.2143 14 12.8333 14C11.4523 14 10.3333 15.119 10.3333 16.5V20.7C10.3333 20.866 10.1993 21 10.0333 21H6.83333C4.83333 21 3.83333 20 3.83333 18V11.651C3.83333 9.65302 4.35638 9.34608 5.26338 8.58608L11.2274 3.58498C12.1564 2.80598 13.5114 2.80598 14.4404 3.58498L20.4044 8.58608C21.3104 9.34608 21.8343 9.65302 21.8343 11.651V18C21.8333 20 20.8333 21 18.8333 21Z" fill="#613BE7"/>
</svg>
