<svg width="25" height="24" viewBox="0 0 25 24" fill="none" xmlns="http://www.w3.org/2000/svg">
<path d="M18.8333 21.75H14.5833V16.5C14.5833 15.535 13.7983 14.75 12.8333 14.75C11.8683 14.75 11.0833 15.535 11.0833 16.5V21.75H6.83333C4.41533 21.75 3.08333 20.418 3.08333 18V11.65C3.08333 9.52704 3.66932 8.93401 4.62532 8.14101L10.7453 3.01003C11.9543 1.99503 13.7123 1.99503 14.9213 3.01003L21.0413 8.14101C21.9973 8.93401 22.5833 9.52804 22.5833 11.65V18C22.5833 20.418 21.2513 21.75 18.8333 21.75ZM16.0833 20.25H18.8333C20.4103 20.25 21.0833 19.577 21.0833 18V11.65C21.0833 10.124 20.8313 9.91506 20.0843 9.29506L13.9583 4.15908C13.3063 3.61308 12.3603 3.61308 11.7083 4.15908L5.58235 9.29506C4.83535 9.91506 4.58333 10.124 4.58333 11.65V18C4.58333 19.577 5.25633 20.25 6.83333 20.25H9.58333V16.5C9.58333 14.708 11.0413 13.25 12.8333 13.25C14.6253 13.25 16.0833 14.708 16.0833 16.5V20.25Z" fill="#93989D"/>
</svg>
